<mxfile host="app.diagrams.net" agent="Mozilla/5.0 (X11; Linux x86_64) AppleWebKit/537.36 (KHTML, like Gecko) Chrome/131.0.0.0 Safari/537.36" version="24.9.0">
  <diagram name="Page-1" id="9f46799a-70d6-7492-0946-bef42562c5a5">
    <mxGraphModel dx="1886" dy="1683" grid="1" gridSize="10" guides="1" tooltips="1" connect="1" arrows="1" fold="1" page="1" pageScale="1" pageWidth="1100" pageHeight="850" background="none" math="0" shadow="0">
      <root>
        <mxCell id="0" />
        <mxCell id="1" parent="0" />
        <mxCell id="kwxxU20uXpd-Tyw1wHY4-10" value="Recruiter" style="swimlane;html=1;fontStyle=1;align=center;verticalAlign=top;childLayout=stackLayout;horizontal=1;startSize=26;horizontalStack=0;resizeParent=1;resizeLast=0;collapsible=1;marginBottom=0;swimlaneFillColor=#ffffff;rounded=0;shadow=0;comic=0;labelBackgroundColor=none;strokeWidth=1;fillColor=none;fontFamily=Verdana;fontSize=12" parent="1" vertex="1">
          <mxGeometry x="230" y="-500" width="160" height="150" as="geometry" />
        </mxCell>
        <mxCell id="kwxxU20uXpd-Tyw1wHY4-11" value="- Company Name : String" style="text;html=1;strokeColor=none;fillColor=none;align=left;verticalAlign=top;spacingLeft=4;spacingRight=4;whiteSpace=wrap;overflow=hidden;rotatable=0;points=[[0,0.5],[1,0.5]];portConstraint=eastwest;" parent="kwxxU20uXpd-Tyw1wHY4-10" vertex="1">
          <mxGeometry y="26" width="160" height="26" as="geometry" />
        </mxCell>
        <mxCell id="kwxxU20uXpd-Tyw1wHY4-16" value="" style="line;html=1;strokeWidth=1;fillColor=none;align=left;verticalAlign=middle;spacingTop=-1;spacingLeft=3;spacingRight=3;rotatable=0;labelPosition=right;points=[];portConstraint=eastwest;" parent="kwxxU20uXpd-Tyw1wHY4-10" vertex="1">
          <mxGeometry y="52" width="160" height="8" as="geometry" />
        </mxCell>
        <mxCell id="kwxxU20uXpd-Tyw1wHY4-17" value="+ Initiate_Query()" style="text;html=1;strokeColor=none;fillColor=none;align=left;verticalAlign=top;spacingLeft=4;spacingRight=4;whiteSpace=wrap;overflow=hidden;rotatable=0;points=[[0,0.5],[1,0.5]];portConstraint=eastwest;" parent="kwxxU20uXpd-Tyw1wHY4-10" vertex="1">
          <mxGeometry y="60" width="160" height="26" as="geometry" />
        </mxCell>
        <mxCell id="kwxxU20uXpd-Tyw1wHY4-18" value="+ Send_Questionnaire()" style="text;html=1;strokeColor=none;fillColor=none;align=left;verticalAlign=top;spacingLeft=4;spacingRight=4;whiteSpace=wrap;overflow=hidden;rotatable=0;points=[[0,0.5],[1,0.5]];portConstraint=eastwest;" parent="kwxxU20uXpd-Tyw1wHY4-10" vertex="1">
          <mxGeometry y="86" width="160" height="26" as="geometry" />
        </mxCell>
        <mxCell id="kwxxU20uXpd-Tyw1wHY4-31" value="+ Send_Message()" style="text;html=1;strokeColor=none;fillColor=none;align=left;verticalAlign=top;spacingLeft=4;spacingRight=4;whiteSpace=wrap;overflow=hidden;rotatable=0;points=[[0,0.5],[1,0.5]];portConstraint=eastwest;" parent="kwxxU20uXpd-Tyw1wHY4-10" vertex="1">
          <mxGeometry y="112" width="160" height="26" as="geometry" />
        </mxCell>
        <mxCell id="kwxxU20uXpd-Tyw1wHY4-20" value="User" style="swimlane;html=1;fontStyle=1;align=center;verticalAlign=top;childLayout=stackLayout;horizontal=1;startSize=26;horizontalStack=0;resizeParent=1;resizeLast=0;collapsible=1;marginBottom=0;swimlaneFillColor=#ffffff;rounded=0;shadow=0;comic=0;labelBackgroundColor=none;strokeWidth=1;fillColor=none;fontFamily=Verdana;fontSize=12" parent="1" vertex="1">
          <mxGeometry x="440" y="-810" width="160" height="200" as="geometry" />
        </mxCell>
        <mxCell id="kwxxU20uXpd-Tyw1wHY4-21" value="- user name : String" style="text;html=1;strokeColor=none;fillColor=none;align=left;verticalAlign=top;spacingLeft=4;spacingRight=4;whiteSpace=wrap;overflow=hidden;rotatable=0;points=[[0,0.5],[1,0.5]];portConstraint=eastwest;" parent="kwxxU20uXpd-Tyw1wHY4-20" vertex="1">
          <mxGeometry y="26" width="160" height="26" as="geometry" />
        </mxCell>
        <mxCell id="kwxxU20uXpd-Tyw1wHY4-22" value="- id : ObjectID" style="text;html=1;strokeColor=none;fillColor=none;align=left;verticalAlign=top;spacingLeft=4;spacingRight=4;whiteSpace=wrap;overflow=hidden;rotatable=0;points=[[0,0.5],[1,0.5]];portConstraint=eastwest;" parent="kwxxU20uXpd-Tyw1wHY4-20" vertex="1">
          <mxGeometry y="52" width="160" height="26" as="geometry" />
        </mxCell>
        <mxCell id="kwxxU20uXpd-Tyw1wHY4-23" value="- email : String" style="text;html=1;strokeColor=none;fillColor=none;align=left;verticalAlign=top;spacingLeft=4;spacingRight=4;whiteSpace=wrap;overflow=hidden;rotatable=0;points=[[0,0.5],[1,0.5]];portConstraint=eastwest;" parent="kwxxU20uXpd-Tyw1wHY4-20" vertex="1">
          <mxGeometry y="78" width="160" height="26" as="geometry" />
        </mxCell>
        <mxCell id="kwxxU20uXpd-Tyw1wHY4-24" value="- name : String" style="text;html=1;strokeColor=none;fillColor=none;align=left;verticalAlign=top;spacingLeft=4;spacingRight=4;whiteSpace=wrap;overflow=hidden;rotatable=0;points=[[0,0.5],[1,0.5]];portConstraint=eastwest;" parent="kwxxU20uXpd-Tyw1wHY4-20" vertex="1">
          <mxGeometry y="104" width="160" height="26" as="geometry" />
        </mxCell>
        <mxCell id="kwxxU20uXpd-Tyw1wHY4-25" value="- profile image : String" style="text;html=1;strokeColor=none;fillColor=none;align=left;verticalAlign=top;spacingLeft=4;spacingRight=4;whiteSpace=wrap;overflow=hidden;rotatable=0;points=[[0,0.5],[1,0.5]];portConstraint=eastwest;" parent="kwxxU20uXpd-Tyw1wHY4-20" vertex="1">
          <mxGeometry y="130" width="160" height="26" as="geometry" />
        </mxCell>
        <mxCell id="kwxxU20uXpd-Tyw1wHY4-26" value="" style="line;html=1;strokeWidth=1;fillColor=none;align=left;verticalAlign=middle;spacingTop=-1;spacingLeft=3;spacingRight=3;rotatable=0;labelPosition=right;points=[];portConstraint=eastwest;" parent="kwxxU20uXpd-Tyw1wHY4-20" vertex="1">
          <mxGeometry y="156" width="160" height="8" as="geometry" />
        </mxCell>
        <mxCell id="kwxxU20uXpd-Tyw1wHY4-27" value="+ Move_To_Dashboard()" style="text;html=1;strokeColor=none;fillColor=none;align=left;verticalAlign=top;spacingLeft=4;spacingRight=4;whiteSpace=wrap;overflow=hidden;rotatable=0;points=[[0,0.5],[1,0.5]];portConstraint=eastwest;" parent="kwxxU20uXpd-Tyw1wHY4-20" vertex="1">
          <mxGeometry y="164" width="160" height="36" as="geometry" />
        </mxCell>
        <mxCell id="kwxxU20uXpd-Tyw1wHY4-89" style="edgeStyle=orthogonalEdgeStyle;rounded=0;orthogonalLoop=1;jettySize=auto;html=1;entryX=0.5;entryY=0;entryDx=0;entryDy=0;" parent="1" source="kwxxU20uXpd-Tyw1wHY4-32" target="kwxxU20uXpd-Tyw1wHY4-47" edge="1">
          <mxGeometry relative="1" as="geometry" />
        </mxCell>
        <mxCell id="kwxxU20uXpd-Tyw1wHY4-32" value="Candidate" style="swimlane;html=1;fontStyle=1;align=center;verticalAlign=top;childLayout=stackLayout;horizontal=1;startSize=26;horizontalStack=0;resizeParent=1;resizeLast=0;collapsible=1;marginBottom=0;swimlaneFillColor=#ffffff;rounded=0;shadow=0;comic=0;labelBackgroundColor=none;strokeWidth=1;fillColor=none;fontFamily=Verdana;fontSize=12" parent="1" vertex="1">
          <mxGeometry x="640" y="-500" width="160" height="150" as="geometry" />
        </mxCell>
        <mxCell id="kwxxU20uXpd-Tyw1wHY4-33" value="- Professional Desc : String" style="text;html=1;strokeColor=none;fillColor=none;align=left;verticalAlign=top;spacingLeft=4;spacingRight=4;whiteSpace=wrap;overflow=hidden;rotatable=0;points=[[0,0.5],[1,0.5]];portConstraint=eastwest;" parent="kwxxU20uXpd-Tyw1wHY4-32" vertex="1">
          <mxGeometry y="26" width="160" height="26" as="geometry" />
        </mxCell>
        <mxCell id="kwxxU20uXpd-Tyw1wHY4-34" value="" style="line;html=1;strokeWidth=1;fillColor=none;align=left;verticalAlign=middle;spacingTop=-1;spacingLeft=3;spacingRight=3;rotatable=0;labelPosition=right;points=[];portConstraint=eastwest;" parent="kwxxU20uXpd-Tyw1wHY4-32" vertex="1">
          <mxGeometry y="52" width="160" height="8" as="geometry" />
        </mxCell>
        <mxCell id="kwxxU20uXpd-Tyw1wHY4-35" value="+ Upload_Resume()" style="text;html=1;strokeColor=none;fillColor=none;align=left;verticalAlign=top;spacingLeft=4;spacingRight=4;whiteSpace=wrap;overflow=hidden;rotatable=0;points=[[0,0.5],[1,0.5]];portConstraint=eastwest;" parent="kwxxU20uXpd-Tyw1wHY4-32" vertex="1">
          <mxGeometry y="60" width="160" height="26" as="geometry" />
        </mxCell>
        <mxCell id="kwxxU20uXpd-Tyw1wHY4-36" value="+ Attempt_Questionnaire()" style="text;html=1;strokeColor=none;fillColor=none;align=left;verticalAlign=top;spacingLeft=4;spacingRight=4;whiteSpace=wrap;overflow=hidden;rotatable=0;points=[[0,0.5],[1,0.5]];portConstraint=eastwest;" parent="kwxxU20uXpd-Tyw1wHY4-32" vertex="1">
          <mxGeometry y="86" width="160" height="26" as="geometry" />
        </mxCell>
        <mxCell id="kwxxU20uXpd-Tyw1wHY4-37" value="+ Send_Response()" style="text;html=1;strokeColor=none;fillColor=none;align=left;verticalAlign=top;spacingLeft=4;spacingRight=4;whiteSpace=wrap;overflow=hidden;rotatable=0;points=[[0,0.5],[1,0.5]];portConstraint=eastwest;" parent="kwxxU20uXpd-Tyw1wHY4-32" vertex="1">
          <mxGeometry y="112" width="160" height="26" as="geometry" />
        </mxCell>
        <mxCell id="kwxxU20uXpd-Tyw1wHY4-87" style="edgeStyle=orthogonalEdgeStyle;rounded=0;orthogonalLoop=1;jettySize=auto;html=1;entryX=0.5;entryY=1;entryDx=0;entryDy=0;endArrow=diamondThin;endFill=1;strokeWidth=2;" parent="1" source="kwxxU20uXpd-Tyw1wHY4-39" target="kwxxU20uXpd-Tyw1wHY4-10" edge="1">
          <mxGeometry relative="1" as="geometry" />
        </mxCell>
        <mxCell id="kwxxU20uXpd-Tyw1wHY4-99" value="Sends" style="edgeLabel;html=1;align=center;verticalAlign=middle;resizable=0;points=[];" parent="kwxxU20uXpd-Tyw1wHY4-87" vertex="1" connectable="0">
          <mxGeometry x="0.0667" y="1" relative="1" as="geometry">
            <mxPoint as="offset" />
          </mxGeometry>
        </mxCell>
        <mxCell id="kwxxU20uXpd-Tyw1wHY4-39" value="Questionnaire" style="swimlane;html=1;fontStyle=1;align=center;verticalAlign=top;childLayout=stackLayout;horizontal=1;startSize=26;horizontalStack=0;resizeParent=1;resizeLast=0;collapsible=1;marginBottom=0;swimlaneFillColor=#ffffff;rounded=0;shadow=0;comic=0;labelBackgroundColor=none;strokeWidth=1;fillColor=none;fontFamily=Verdana;fontSize=12" parent="1" vertex="1">
          <mxGeometry x="230" y="-280" width="160" height="122" as="geometry" />
        </mxCell>
        <mxCell id="kwxxU20uXpd-Tyw1wHY4-40" value="- Questions : String" style="text;html=1;strokeColor=none;fillColor=none;align=left;verticalAlign=top;spacingLeft=4;spacingRight=4;whiteSpace=wrap;overflow=hidden;rotatable=0;points=[[0,0.5],[1,0.5]];portConstraint=eastwest;" parent="kwxxU20uXpd-Tyw1wHY4-39" vertex="1">
          <mxGeometry y="26" width="160" height="26" as="geometry" />
        </mxCell>
        <mxCell id="kwxxU20uXpd-Tyw1wHY4-41" value="- id : ObjectID" style="text;html=1;strokeColor=none;fillColor=none;align=left;verticalAlign=top;spacingLeft=4;spacingRight=4;whiteSpace=wrap;overflow=hidden;rotatable=0;points=[[0,0.5],[1,0.5]];portConstraint=eastwest;" parent="kwxxU20uXpd-Tyw1wHY4-39" vertex="1">
          <mxGeometry y="52" width="160" height="26" as="geometry" />
        </mxCell>
        <mxCell id="kwxxU20uXpd-Tyw1wHY4-45" value="" style="line;html=1;strokeWidth=1;fillColor=none;align=left;verticalAlign=middle;spacingTop=-1;spacingLeft=3;spacingRight=3;rotatable=0;labelPosition=right;points=[];portConstraint=eastwest;" parent="kwxxU20uXpd-Tyw1wHY4-39" vertex="1">
          <mxGeometry y="78" width="160" height="8" as="geometry" />
        </mxCell>
        <mxCell id="kwxxU20uXpd-Tyw1wHY4-46" value="+ Move_To_Dashboard()" style="text;html=1;strokeColor=none;fillColor=none;align=left;verticalAlign=top;spacingLeft=4;spacingRight=4;whiteSpace=wrap;overflow=hidden;rotatable=0;points=[[0,0.5],[1,0.5]];portConstraint=eastwest;" parent="kwxxU20uXpd-Tyw1wHY4-39" vertex="1">
          <mxGeometry y="86" width="160" height="36" as="geometry" />
        </mxCell>
        <mxCell id="kwxxU20uXpd-Tyw1wHY4-88" style="edgeStyle=orthogonalEdgeStyle;rounded=0;orthogonalLoop=1;jettySize=auto;html=1;strokeWidth=2;endArrow=diamondThin;endFill=1;" parent="1" source="kwxxU20uXpd-Tyw1wHY4-47" edge="1">
          <mxGeometry relative="1" as="geometry">
            <mxPoint x="720" y="-349.9999999999999" as="targetPoint" />
          </mxGeometry>
        </mxCell>
        <mxCell id="kwxxU20uXpd-Tyw1wHY4-101" value="Uploads" style="edgeLabel;html=1;align=center;verticalAlign=middle;resizable=0;points=[];" parent="kwxxU20uXpd-Tyw1wHY4-88" vertex="1" connectable="0">
          <mxGeometry x="-0.0298" y="1" relative="1" as="geometry">
            <mxPoint y="-1" as="offset" />
          </mxGeometry>
        </mxCell>
        <mxCell id="kwxxU20uXpd-Tyw1wHY4-47" value="Resume" style="swimlane;html=1;fontStyle=1;align=center;verticalAlign=top;childLayout=stackLayout;horizontal=1;startSize=26;horizontalStack=0;resizeParent=1;resizeLast=0;collapsible=1;marginBottom=0;swimlaneFillColor=#ffffff;rounded=0;shadow=0;comic=0;labelBackgroundColor=none;strokeWidth=1;fillColor=none;fontFamily=Verdana;fontSize=12" parent="1" vertex="1">
          <mxGeometry x="640" y="-300" width="160" height="200" as="geometry" />
        </mxCell>
        <mxCell id="kwxxU20uXpd-Tyw1wHY4-48" value="- Name : String" style="text;html=1;strokeColor=none;fillColor=none;align=left;verticalAlign=top;spacingLeft=4;spacingRight=4;whiteSpace=wrap;overflow=hidden;rotatable=0;points=[[0,0.5],[1,0.5]];portConstraint=eastwest;" parent="kwxxU20uXpd-Tyw1wHY4-47" vertex="1">
          <mxGeometry y="26" width="160" height="26" as="geometry" />
        </mxCell>
        <mxCell id="kwxxU20uXpd-Tyw1wHY4-49" value="- Experience : String" style="text;html=1;strokeColor=none;fillColor=none;align=left;verticalAlign=top;spacingLeft=4;spacingRight=4;whiteSpace=wrap;overflow=hidden;rotatable=0;points=[[0,0.5],[1,0.5]];portConstraint=eastwest;" parent="kwxxU20uXpd-Tyw1wHY4-47" vertex="1">
          <mxGeometry y="52" width="160" height="26" as="geometry" />
        </mxCell>
        <mxCell id="kwxxU20uXpd-Tyw1wHY4-50" value="- Skills : String" style="text;html=1;strokeColor=none;fillColor=none;align=left;verticalAlign=top;spacingLeft=4;spacingRight=4;whiteSpace=wrap;overflow=hidden;rotatable=0;points=[[0,0.5],[1,0.5]];portConstraint=eastwest;" parent="kwxxU20uXpd-Tyw1wHY4-47" vertex="1">
          <mxGeometry y="78" width="160" height="26" as="geometry" />
        </mxCell>
        <mxCell id="kwxxU20uXpd-Tyw1wHY4-51" value="- Email : String" style="text;html=1;strokeColor=none;fillColor=none;align=left;verticalAlign=top;spacingLeft=4;spacingRight=4;whiteSpace=wrap;overflow=hidden;rotatable=0;points=[[0,0.5],[1,0.5]];portConstraint=eastwest;" parent="kwxxU20uXpd-Tyw1wHY4-47" vertex="1">
          <mxGeometry y="104" width="160" height="26" as="geometry" />
        </mxCell>
        <mxCell id="kwxxU20uXpd-Tyw1wHY4-52" value="- Projects : String" style="text;html=1;strokeColor=none;fillColor=none;align=left;verticalAlign=top;spacingLeft=4;spacingRight=4;whiteSpace=wrap;overflow=hidden;rotatable=0;points=[[0,0.5],[1,0.5]];portConstraint=eastwest;" parent="kwxxU20uXpd-Tyw1wHY4-47" vertex="1">
          <mxGeometry y="130" width="160" height="26" as="geometry" />
        </mxCell>
        <mxCell id="kwxxU20uXpd-Tyw1wHY4-53" value="" style="line;html=1;strokeWidth=1;fillColor=none;align=left;verticalAlign=middle;spacingTop=-1;spacingLeft=3;spacingRight=3;rotatable=0;labelPosition=right;points=[];portConstraint=eastwest;" parent="kwxxU20uXpd-Tyw1wHY4-47" vertex="1">
          <mxGeometry y="156" width="160" height="8" as="geometry" />
        </mxCell>
        <mxCell id="kwxxU20uXpd-Tyw1wHY4-55" value="Query" style="swimlane;html=1;fontStyle=1;align=center;verticalAlign=top;childLayout=stackLayout;horizontal=1;startSize=26;horizontalStack=0;resizeParent=1;resizeLast=0;collapsible=1;marginBottom=0;swimlaneFillColor=#ffffff;rounded=0;shadow=0;comic=0;labelBackgroundColor=none;strokeWidth=1;fillColor=none;fontFamily=Verdana;fontSize=12" parent="1" vertex="1">
          <mxGeometry x="240" y="-20" width="160" height="96" as="geometry" />
        </mxCell>
        <mxCell id="kwxxU20uXpd-Tyw1wHY4-56" value="- Requirements : String" style="text;html=1;strokeColor=none;fillColor=none;align=left;verticalAlign=top;spacingLeft=4;spacingRight=4;whiteSpace=wrap;overflow=hidden;rotatable=0;points=[[0,0.5],[1,0.5]];portConstraint=eastwest;" parent="kwxxU20uXpd-Tyw1wHY4-55" vertex="1">
          <mxGeometry y="26" width="160" height="26" as="geometry" />
        </mxCell>
        <mxCell id="kwxxU20uXpd-Tyw1wHY4-61" value="" style="line;html=1;strokeWidth=1;fillColor=none;align=left;verticalAlign=middle;spacingTop=-1;spacingLeft=3;spacingRight=3;rotatable=0;labelPosition=right;points=[];portConstraint=eastwest;" parent="kwxxU20uXpd-Tyw1wHY4-55" vertex="1">
          <mxGeometry y="52" width="160" height="8" as="geometry" />
        </mxCell>
        <mxCell id="kwxxU20uXpd-Tyw1wHY4-62" value="+ Initiate_ML_Model()" style="text;html=1;strokeColor=none;fillColor=none;align=left;verticalAlign=top;spacingLeft=4;spacingRight=4;whiteSpace=wrap;overflow=hidden;rotatable=0;points=[[0,0.5],[1,0.5]];portConstraint=eastwest;" parent="kwxxU20uXpd-Tyw1wHY4-55" vertex="1">
          <mxGeometry y="60" width="160" height="36" as="geometry" />
        </mxCell>
        <mxCell id="kwxxU20uXpd-Tyw1wHY4-95" style="edgeStyle=orthogonalEdgeStyle;rounded=0;orthogonalLoop=1;jettySize=auto;html=1;" parent="1" source="kwxxU20uXpd-Tyw1wHY4-63" edge="1">
          <mxGeometry relative="1" as="geometry">
            <mxPoint x="720" y="-99.99999999999977" as="targetPoint" />
          </mxGeometry>
        </mxCell>
        <mxCell id="kwxxU20uXpd-Tyw1wHY4-102" value="Analyses" style="edgeLabel;html=1;align=center;verticalAlign=middle;resizable=0;points=[];" parent="kwxxU20uXpd-Tyw1wHY4-95" vertex="1" connectable="0">
          <mxGeometry x="-0.1056" relative="1" as="geometry">
            <mxPoint as="offset" />
          </mxGeometry>
        </mxCell>
        <mxCell id="kwxxU20uXpd-Tyw1wHY4-63" value="ML Model" style="swimlane;html=1;fontStyle=1;align=center;verticalAlign=top;childLayout=stackLayout;horizontal=1;startSize=26;horizontalStack=0;resizeParent=1;resizeLast=0;collapsible=1;marginBottom=0;swimlaneFillColor=#ffffff;rounded=0;shadow=0;comic=0;labelBackgroundColor=none;strokeWidth=1;fillColor=none;fontFamily=Verdana;fontSize=12" parent="1" vertex="1">
          <mxGeometry x="640" y="-20" width="160" height="100" as="geometry" />
        </mxCell>
        <mxCell id="kwxxU20uXpd-Tyw1wHY4-64" value="- Data Details: String" style="text;html=1;strokeColor=none;fillColor=none;align=left;verticalAlign=top;spacingLeft=4;spacingRight=4;whiteSpace=wrap;overflow=hidden;rotatable=0;points=[[0,0.5],[1,0.5]];portConstraint=eastwest;" parent="kwxxU20uXpd-Tyw1wHY4-63" vertex="1">
          <mxGeometry y="26" width="160" height="26" as="geometry" />
        </mxCell>
        <mxCell id="kwxxU20uXpd-Tyw1wHY4-69" value="" style="line;html=1;strokeWidth=1;fillColor=none;align=left;verticalAlign=middle;spacingTop=-1;spacingLeft=3;spacingRight=3;rotatable=0;labelPosition=right;points=[];portConstraint=eastwest;" parent="kwxxU20uXpd-Tyw1wHY4-63" vertex="1">
          <mxGeometry y="52" width="160" height="8" as="geometry" />
        </mxCell>
        <mxCell id="kwxxU20uXpd-Tyw1wHY4-70" value="+ Move_To_Dashboard()" style="text;html=1;strokeColor=none;fillColor=none;align=left;verticalAlign=top;spacingLeft=4;spacingRight=4;whiteSpace=wrap;overflow=hidden;rotatable=0;points=[[0,0.5],[1,0.5]];portConstraint=eastwest;" parent="kwxxU20uXpd-Tyw1wHY4-63" vertex="1">
          <mxGeometry y="60" width="160" height="36" as="geometry" />
        </mxCell>
        <mxCell id="kwxxU20uXpd-Tyw1wHY4-71" value="Message" style="swimlane;html=1;fontStyle=1;align=center;verticalAlign=top;childLayout=stackLayout;horizontal=1;startSize=26;horizontalStack=0;resizeParent=1;resizeLast=0;collapsible=1;marginBottom=0;swimlaneFillColor=#ffffff;rounded=0;shadow=0;comic=0;labelBackgroundColor=none;strokeWidth=1;fillColor=none;fontFamily=Verdana;fontSize=12" parent="1" vertex="1">
          <mxGeometry x="450" y="100" width="160" height="148" as="geometry" />
        </mxCell>
        <mxCell id="kwxxU20uXpd-Tyw1wHY4-72" value="- Sender : String" style="text;html=1;strokeColor=none;fillColor=none;align=left;verticalAlign=top;spacingLeft=4;spacingRight=4;whiteSpace=wrap;overflow=hidden;rotatable=0;points=[[0,0.5],[1,0.5]];portConstraint=eastwest;" parent="kwxxU20uXpd-Tyw1wHY4-71" vertex="1">
          <mxGeometry y="26" width="160" height="26" as="geometry" />
        </mxCell>
        <mxCell id="kwxxU20uXpd-Tyw1wHY4-73" value="- Receiver : ObjectID" style="text;html=1;strokeColor=none;fillColor=none;align=left;verticalAlign=top;spacingLeft=4;spacingRight=4;whiteSpace=wrap;overflow=hidden;rotatable=0;points=[[0,0.5],[1,0.5]];portConstraint=eastwest;" parent="kwxxU20uXpd-Tyw1wHY4-71" vertex="1">
          <mxGeometry y="52" width="160" height="26" as="geometry" />
        </mxCell>
        <mxCell id="kwxxU20uXpd-Tyw1wHY4-74" value="- Message : String" style="text;html=1;strokeColor=none;fillColor=none;align=left;verticalAlign=top;spacingLeft=4;spacingRight=4;whiteSpace=wrap;overflow=hidden;rotatable=0;points=[[0,0.5],[1,0.5]];portConstraint=eastwest;" parent="kwxxU20uXpd-Tyw1wHY4-71" vertex="1">
          <mxGeometry y="78" width="160" height="26" as="geometry" />
        </mxCell>
        <mxCell id="kwxxU20uXpd-Tyw1wHY4-77" value="" style="line;html=1;strokeWidth=1;fillColor=none;align=left;verticalAlign=middle;spacingTop=-1;spacingLeft=3;spacingRight=3;rotatable=0;labelPosition=right;points=[];portConstraint=eastwest;" parent="kwxxU20uXpd-Tyw1wHY4-71" vertex="1">
          <mxGeometry y="104" width="160" height="8" as="geometry" />
        </mxCell>
        <mxCell id="kwxxU20uXpd-Tyw1wHY4-78" value="+ Move_To_Dashboard()" style="text;html=1;strokeColor=none;fillColor=none;align=left;verticalAlign=top;spacingLeft=4;spacingRight=4;whiteSpace=wrap;overflow=hidden;rotatable=0;points=[[0,0.5],[1,0.5]];portConstraint=eastwest;" parent="kwxxU20uXpd-Tyw1wHY4-71" vertex="1">
          <mxGeometry y="112" width="160" height="36" as="geometry" />
        </mxCell>
        <mxCell id="kwxxU20uXpd-Tyw1wHY4-82" style="edgeStyle=orthogonalEdgeStyle;rounded=0;orthogonalLoop=1;jettySize=auto;html=1;entryX=0.5;entryY=1;entryDx=0;entryDy=0;entryPerimeter=0;endArrow=block;endFill=0;strokeWidth=2;" parent="1" source="kwxxU20uXpd-Tyw1wHY4-10" target="kwxxU20uXpd-Tyw1wHY4-27" edge="1">
          <mxGeometry relative="1" as="geometry" />
        </mxCell>
        <mxCell id="kwxxU20uXpd-Tyw1wHY4-86" style="edgeStyle=orthogonalEdgeStyle;rounded=0;orthogonalLoop=1;jettySize=auto;html=1;entryX=0.497;entryY=1;entryDx=0;entryDy=0;entryPerimeter=0;endArrow=block;endFill=0;strokeWidth=2;" parent="1" source="kwxxU20uXpd-Tyw1wHY4-32" target="kwxxU20uXpd-Tyw1wHY4-27" edge="1">
          <mxGeometry relative="1" as="geometry" />
        </mxCell>
        <mxCell id="kwxxU20uXpd-Tyw1wHY4-91" style="edgeStyle=orthogonalEdgeStyle;rounded=0;orthogonalLoop=1;jettySize=auto;html=1;" parent="1" source="kwxxU20uXpd-Tyw1wHY4-35" target="kwxxU20uXpd-Tyw1wHY4-41" edge="1">
          <mxGeometry relative="1" as="geometry" />
        </mxCell>
        <mxCell id="kwxxU20uXpd-Tyw1wHY4-100" value="Attempts" style="edgeLabel;html=1;align=center;verticalAlign=middle;resizable=0;points=[];" parent="kwxxU20uXpd-Tyw1wHY4-91" vertex="1" connectable="0">
          <mxGeometry x="0.0072" y="2" relative="1" as="geometry">
            <mxPoint as="offset" />
          </mxGeometry>
        </mxCell>
        <mxCell id="kwxxU20uXpd-Tyw1wHY4-92" style="edgeStyle=orthogonalEdgeStyle;rounded=0;orthogonalLoop=1;jettySize=auto;html=1;entryX=0;entryY=0.5;entryDx=0;entryDy=0;exitX=0;exitY=0.5;exitDx=0;exitDy=0;" parent="1" source="kwxxU20uXpd-Tyw1wHY4-18" target="kwxxU20uXpd-Tyw1wHY4-56" edge="1">
          <mxGeometry relative="1" as="geometry">
            <Array as="points">
              <mxPoint x="180" y="-401" />
              <mxPoint x="180" y="19" />
            </Array>
          </mxGeometry>
        </mxCell>
        <mxCell id="kwxxU20uXpd-Tyw1wHY4-94" style="edgeStyle=orthogonalEdgeStyle;rounded=0;orthogonalLoop=1;jettySize=auto;html=1;entryX=0;entryY=0.5;entryDx=0;entryDy=0;endArrow=diamondThin;endFill=1;" parent="1" source="kwxxU20uXpd-Tyw1wHY4-56" target="kwxxU20uXpd-Tyw1wHY4-18" edge="1">
          <mxGeometry relative="1" as="geometry">
            <Array as="points">
              <mxPoint x="180" y="19" />
              <mxPoint x="180" y="-401" />
            </Array>
          </mxGeometry>
        </mxCell>
        <mxCell id="kwxxU20uXpd-Tyw1wHY4-104" value="Initiates" style="edgeLabel;html=1;align=center;verticalAlign=middle;resizable=0;points=[];" parent="kwxxU20uXpd-Tyw1wHY4-94" vertex="1" connectable="0">
          <mxGeometry x="-0.089" y="2" relative="1" as="geometry">
            <mxPoint as="offset" />
          </mxGeometry>
        </mxCell>
        <mxCell id="kwxxU20uXpd-Tyw1wHY4-96" style="edgeStyle=orthogonalEdgeStyle;rounded=0;orthogonalLoop=1;jettySize=auto;html=1;entryX=0;entryY=0.5;entryDx=0;entryDy=0;" parent="1" source="kwxxU20uXpd-Tyw1wHY4-56" target="kwxxU20uXpd-Tyw1wHY4-64" edge="1">
          <mxGeometry relative="1" as="geometry" />
        </mxCell>
        <mxCell id="kwxxU20uXpd-Tyw1wHY4-103" value="Provides&lt;br&gt;Data" style="edgeLabel;html=1;align=center;verticalAlign=middle;resizable=0;points=[];" parent="kwxxU20uXpd-Tyw1wHY4-96" vertex="1" connectable="0">
          <mxGeometry x="-0.0012" y="-3" relative="1" as="geometry">
            <mxPoint as="offset" />
          </mxGeometry>
        </mxCell>
        <mxCell id="kwxxU20uXpd-Tyw1wHY4-97" style="edgeStyle=orthogonalEdgeStyle;rounded=0;orthogonalLoop=1;jettySize=auto;html=1;entryX=1;entryY=0.5;entryDx=0;entryDy=0;endArrow=none;endFill=0;" parent="1" source="kwxxU20uXpd-Tyw1wHY4-35" target="kwxxU20uXpd-Tyw1wHY4-73" edge="1">
          <mxGeometry relative="1" as="geometry">
            <Array as="points">
              <mxPoint x="920" y="-427" />
              <mxPoint x="920" y="165" />
            </Array>
          </mxGeometry>
        </mxCell>
        <mxCell id="hCBWUkyzS9g8pYKJidUM-2" value="Send&lt;div&gt;/&lt;/div&gt;&lt;div&gt;Receive&lt;/div&gt;" style="edgeLabel;html=1;align=center;verticalAlign=middle;resizable=0;points=[];" vertex="1" connectable="0" parent="kwxxU20uXpd-Tyw1wHY4-97">
          <mxGeometry x="-0.3918" y="-1" relative="1" as="geometry">
            <mxPoint y="8" as="offset" />
          </mxGeometry>
        </mxCell>
        <mxCell id="kwxxU20uXpd-Tyw1wHY4-98" style="edgeStyle=orthogonalEdgeStyle;rounded=0;orthogonalLoop=1;jettySize=auto;html=1;entryX=-0.008;entryY=0.644;entryDx=0;entryDy=0;entryPerimeter=0;endArrow=none;endFill=0;" parent="1" source="kwxxU20uXpd-Tyw1wHY4-17" target="kwxxU20uXpd-Tyw1wHY4-73" edge="1">
          <mxGeometry relative="1" as="geometry">
            <Array as="points">
              <mxPoint x="130" y="-427" />
              <mxPoint x="130" y="170" />
              <mxPoint x="449" y="170" />
            </Array>
          </mxGeometry>
        </mxCell>
        <mxCell id="hCBWUkyzS9g8pYKJidUM-1" value="Send&lt;div&gt;/&lt;/div&gt;&lt;div&gt;Receive&lt;/div&gt;" style="edgeLabel;html=1;align=center;verticalAlign=middle;resizable=0;points=[];" vertex="1" connectable="0" parent="kwxxU20uXpd-Tyw1wHY4-98">
          <mxGeometry x="-0.4051" y="-2" relative="1" as="geometry">
            <mxPoint y="-4" as="offset" />
          </mxGeometry>
        </mxCell>
        <mxCell id="kwxxU20uXpd-Tyw1wHY4-105" value="1" style="text;html=1;align=center;verticalAlign=middle;resizable=0;points=[];autosize=1;strokeColor=none;fillColor=none;" parent="1" vertex="1">
          <mxGeometry x="200" y="-400" width="30" height="30" as="geometry" />
        </mxCell>
        <mxCell id="kwxxU20uXpd-Tyw1wHY4-106" value="1" style="text;html=1;align=center;verticalAlign=middle;resizable=0;points=[];autosize=1;strokeColor=none;fillColor=none;" parent="1" vertex="1">
          <mxGeometry x="280" y="-350" width="30" height="30" as="geometry" />
        </mxCell>
        <mxCell id="kwxxU20uXpd-Tyw1wHY4-107" value="&lt;b&gt;&lt;font style=&quot;font-size: 18px;&quot;&gt;*&lt;/font&gt;&lt;/b&gt;" style="text;html=1;align=center;verticalAlign=middle;resizable=0;points=[];autosize=1;strokeColor=none;fillColor=none;" parent="1" vertex="1">
          <mxGeometry x="280" y="-310" width="30" height="40" as="geometry" />
        </mxCell>
        <mxCell id="kwxxU20uXpd-Tyw1wHY4-108" value="1" style="text;html=1;align=center;verticalAlign=middle;resizable=0;points=[];autosize=1;strokeColor=none;fillColor=none;" parent="1" vertex="1">
          <mxGeometry x="200" y="-455" width="30" height="30" as="geometry" />
        </mxCell>
        <mxCell id="kwxxU20uXpd-Tyw1wHY4-109" value="1" style="text;html=1;align=center;verticalAlign=middle;resizable=0;points=[];autosize=1;strokeColor=none;fillColor=none;" parent="1" vertex="1">
          <mxGeometry x="800" y="-455" width="30" height="30" as="geometry" />
        </mxCell>
        <mxCell id="kwxxU20uXpd-Tyw1wHY4-110" value="1" style="text;html=1;align=center;verticalAlign=middle;resizable=0;points=[];autosize=1;strokeColor=none;fillColor=none;" parent="1" vertex="1">
          <mxGeometry x="670" y="-350" width="30" height="30" as="geometry" />
        </mxCell>
        <mxCell id="kwxxU20uXpd-Tyw1wHY4-111" value="1" style="text;html=1;align=center;verticalAlign=middle;resizable=0;points=[];autosize=1;strokeColor=none;fillColor=none;" parent="1" vertex="1">
          <mxGeometry x="610" y="-455" width="30" height="30" as="geometry" />
        </mxCell>
        <mxCell id="kwxxU20uXpd-Tyw1wHY4-112" value="1" style="text;html=1;align=center;verticalAlign=middle;resizable=0;points=[];autosize=1;strokeColor=none;fillColor=none;" parent="1" vertex="1">
          <mxGeometry x="730" y="-330" width="30" height="30" as="geometry" />
        </mxCell>
        <mxCell id="kwxxU20uXpd-Tyw1wHY4-113" value="1" style="text;html=1;align=center;verticalAlign=middle;resizable=0;points=[];autosize=1;strokeColor=none;fillColor=none;" parent="1" vertex="1">
          <mxGeometry x="400" y="20" width="30" height="30" as="geometry" />
        </mxCell>
        <mxCell id="kwxxU20uXpd-Tyw1wHY4-114" value="1" style="text;html=1;align=center;verticalAlign=middle;resizable=0;points=[];autosize=1;strokeColor=none;fillColor=none;" parent="1" vertex="1">
          <mxGeometry x="610" y="20" width="30" height="30" as="geometry" />
        </mxCell>
        <mxCell id="kwxxU20uXpd-Tyw1wHY4-115" value="1" style="text;html=1;align=center;verticalAlign=middle;resizable=0;points=[];autosize=1;strokeColor=none;fillColor=none;" parent="1" vertex="1">
          <mxGeometry x="690" y="-50" width="30" height="30" as="geometry" />
        </mxCell>
        <mxCell id="kwxxU20uXpd-Tyw1wHY4-116" value="&lt;b&gt;&lt;font style=&quot;font-size: 18px;&quot;&gt;*&lt;/font&gt;&lt;/b&gt;" style="text;html=1;align=center;verticalAlign=middle;resizable=0;points=[];autosize=1;strokeColor=none;fillColor=none;" parent="1" vertex="1">
          <mxGeometry x="210" y="-10" width="30" height="40" as="geometry" />
        </mxCell>
        <mxCell id="kwxxU20uXpd-Tyw1wHY4-117" value="&lt;b&gt;&lt;font style=&quot;font-size: 18px;&quot;&gt;*&lt;/font&gt;&lt;/b&gt;" style="text;html=1;align=center;verticalAlign=middle;resizable=0;points=[];autosize=1;strokeColor=none;fillColor=none;" parent="1" vertex="1">
          <mxGeometry x="390" y="-250" width="30" height="40" as="geometry" />
        </mxCell>
        <mxCell id="kwxxU20uXpd-Tyw1wHY4-118" value="&lt;b&gt;&lt;font style=&quot;font-size: 18px;&quot;&gt;*&lt;/font&gt;&lt;/b&gt;" style="text;html=1;align=center;verticalAlign=middle;resizable=0;points=[];autosize=1;strokeColor=none;fillColor=none;" parent="1" vertex="1">
          <mxGeometry x="420" y="130" width="30" height="40" as="geometry" />
        </mxCell>
        <mxCell id="kwxxU20uXpd-Tyw1wHY4-119" value="&lt;b&gt;&lt;font style=&quot;font-size: 18px;&quot;&gt;*&lt;/font&gt;&lt;/b&gt;" style="text;html=1;align=center;verticalAlign=middle;resizable=0;points=[];autosize=1;strokeColor=none;fillColor=none;" parent="1" vertex="1">
          <mxGeometry x="610" y="130" width="30" height="40" as="geometry" />
        </mxCell>
        <mxCell id="kwxxU20uXpd-Tyw1wHY4-120" value="&lt;b&gt;&lt;font style=&quot;font-size: 18px;&quot;&gt;*&lt;/font&gt;&lt;/b&gt;" style="text;html=1;align=center;verticalAlign=middle;resizable=0;points=[];autosize=1;strokeColor=none;fillColor=none;" parent="1" vertex="1">
          <mxGeometry x="690" y="-100" width="30" height="40" as="geometry" />
        </mxCell>
      </root>
    </mxGraphModel>
  </diagram>
</mxfile>
